<?xml version="1.0" encoding="utf-8"?>
<?xml-stylesheet type="text/xsl" href="rss1.xsl"?>
<rss version="2.0" xmlns:atom="http://www.w3.org/2005/Atom" xmlns:content="http://purl.org/rss/1.0/modules/content/" xmlns:dc="http://purl.org/dc/elements/1.1/" xmlns:media="http://search.yahoo.com/mrss/">
<channel>
 <title>Getty</title>
 <link>http://www.gettyimg.com/</link>
 <atom:link href="http://www.gettyimg.com/" rel="self" type="application/rss+xml" />

 
                <item>
                <title><![CDATA[【UPSCALED】Teairra Marí - Cause A Scene (feat. Flo Rida) (2009) | 1080p AI Upscale]]></title>
                <link><![CDATA[https://sharemania.us/threads/teairra-mar%C3%AD-cause-a-scene-feat-flo-rida-2009-1080p-ai-upscale.248595/]]></link>
                <description><![CDATA[<article>
<blockquote class="messageText SelectQuoteContainer ugc baseHtml">
<img src="https://i.imgur.com/nwxgGjR.jpeg" class="bbCodeImage LbImage" alt="[​IMG]" data-url="https://i.imgur.com/nwxgGjR.jpeg" style=""> <br>
<img src="https://i.imgur.com/T8MBSsz.jpeg" class="bbCodeImage LbImage" alt="[​IMG]" data-url="https://i.imgur.com/T8MBSsz.jpeg" style=""> <br>
<img src="https://i.imgur.com/vbUkhA3.jpeg" class="bbCodeImage LbImage" alt="[​IMG]" data-url="https://i.imgur.com/vbUkhA3.jpeg" style=""> <br>
<img src="https://i.imgur.com/pHrFKSx.jpeg" class="bbCodeImage LbImage" alt="[​IMG]" data-url="https://i.imgur.com/pHrFKSx.jpeg" style=""> <br>
<img src="https://i.imgur.com/UEQ1JRm.jpeg" class="bbCodeImage LbImage" alt="[​IMG]" data-url="https://i.imgur.com/UEQ1JRm.jpeg" style=""> <br>
<br>
<div class="bbCodeBlock bbCodeVfcHH HiddenContent">
<div class="attribution type">Hidden Content:</div>
<blockquote>You must reply before you can see the hidden data contained here.</blockquote>
</div>
<div class="ToggleTriggerAnchor bbCodeSpoilerContainer">
<button type="button" class="button bbCodeSpoilerButton ToggleTrigger Tooltip JsOnly" data-target="> .SpoilerTarget"><span>Spoiler: <span class="SpoilerTitle">MediaInfo</span></span></button>
<div class="SpoilerTarget bbCodeSpoilerText"><span style="font-family: 'Courier New'">General<br>
Format : MPEG-4<br>
Format profile : Base Media / Version 2<br>
Codec ID : mp42 (isom/mp42)<br>
File size : 829 MiB<br>
Duration : 4 min 48 s<br>
Overall bit rate mode : Variable<br>
Overall bit rate : 24.1 Mb/s<br>
Frame rate : 23.976 FPS<br>
<br>
Video<br>
ID : 2<br>
Format : AVC<br>
Format/Info : Advanced Video Codec<br>
Format profile : High@L5.1<br>
Format settings : CABAC / 3 Ref Frames<br>
Format settings, CABAC : Yes<br>
Format settings, Reference fra : 3 frames<br>
Format settings, GOP : M=3, N=33<br>
Codec ID : avc1<br>
Codec ID/Info : Advanced Video Coding<br>
Duration : 4 min 48 s<br>
Bit rate mode : Variable<br>
Bit rate : 23.9 Mb/s<br>
Maximum bit rate : 30.0 Mb/s<br>
Width : 1 920 pixels<br>
Height : 1 080 pixels<br>
Display aspect ratio : 16:9<br>
Frame rate mode : Constant<br>
Frame rate : 23.976 (24000/1001) FPS<br>
Standard : NTSC<br>
Color space : YUV<br>
Chroma subsampling : 4:2:0<br>
Bit depth : 8 bits<br>
Scan type : Progressive<br>
Bits/(Pixel*Frame) : 0.480<br>
Stream size : 822 MiB (99%)<br>
Language : English<br>
Color range : Limited<br>
Color primaries : BT.709<br>
Transfer characteristics : BT.709<br>
Matrix coefficients : BT.709<br>
Codec configuration box : avcC<br>
<br>
Audio<br>
ID : 1<br>
Format : AAC LC<br>
Format/Info : Advanced Audio Codec Low Complexity<br>
Codec ID : mp4a-40-2<br>
Duration : 4 min 48 s<br>
Bit rate mode : Variable<br>
Bit rate : 192 kb/s<br>
Maximum bit rate : 222 kb/s<br>
Channel(s) : 2 channels<br>
Channel layout : L R<br>
Sampling rate : 48.0 kHz<br>
Frame rate : 46.875 FPS (1024 SPF)<br>
Compression mode : Lossy<br>
Stream size : 6.52 MiB (1%)<br>
Language : English</span></div>
</div><br>
Requested by <span style="font-size: 15px"><a href="https://sharemania.us/members/djodjara.2687/" class="internalLink"><b>Djodjara</b></a> </span>
<div class="messageTextEndMarker">&nbsp;</div>
</blockquote>
</article>]]></description>
                <author><![CDATA[lulis]]></author>
                </item>

                
                <item>
                <title><![CDATA[【Singles (lossless)】ALAC - Perrie - Tears | ALAC | Apple Digital Master | 24bits/48.0 kHz | 1 811 kb/s]]></title>
                <link><![CDATA[https://sharemania.us/threads/perrie-tears-alac-apple-digital-master-24bits-48-0-khz-1-811-kb-s.248593/]]></link>
                <description><![CDATA[<article>
<blockquote class="messageText SelectQuoteContainer ugc baseHtml">
<img src="https://a1.mzstatic.com/r40/Music211/v4/69/5f/23/695f2348-f47e-8f29-3b5d-00e0a9c9b820/196872116786.jpg" class="bbCodeImage LbImage" alt="[​IMG]" data-url="https://a1.mzstatic.com/r40/Music211/v4/69/5f/23/695f2348-f47e-8f29-3b5d-00e0a9c9b820/196872116786.jpg" style=""><br>
<b>Title:</b> Tears<br>
<b>Artist: </b>Perrie<br>
<b>Release Date:</b> June 21, 2024<br>
<b>Record Label:</b> ℗ 2024 Perrie Louise Ltd, under exclusive license to Sony Music Entertainment UK Limited.<br>
<b>Genre:</b> Pop / Music<br>
<b>Total Size:</b> 39.6 MB<br>
<b>Format:</b> Apple Lossless Audio Codec (ALAC)<br>
<b>Sampling Rate: </b>48.0 kHz<br>
<b>Bit depth:</b> 24 bits<br>
<b>Source:</b> <a href="https://music.apple.com/us/album/tears-single/1747946974" target="_blank" class="externalLink" rel="nofollow"> <b><i>Apple Music</i></b> </a><br>
<br>
<b>Download Link: </b><br>
<div class="bbCodeBlock bbCodeVfcHH HiddenContent">
<div class="attribution type">Hidden Content:</div>
<blockquote>You must reply before you can see the hidden data contained here.</blockquote>
</div>
<div class="messageTextEndMarker">&nbsp;</div>
</blockquote>
</article>]]></description>
                <author><![CDATA[kkgonea13]]></author>
                </item>

                
                <item>
                <title><![CDATA[【Requests】[REQ AUD] - [REQ AUD] aespa - Hot Mess - Single]]></title>
                <link><![CDATA[https://sharemania.us/threads/req-aud-aespa-hot-mess-single.248594/]]></link>
                <description><![CDATA[<article>
<blockquote class="messageText SelectQuoteContainer ugc baseHtml">
thanks
<div class="messageTextEndMarker">&nbsp;</div>
</blockquote>
</article>]]></description>
                <author><![CDATA[nthendrawan]]></author>
                </item>

                </channel></rss>